<svg width="500" height="1200" viewBox="0 0 500 1200" fill="none" xmlns="http://www.w3.org/2000/svg">
<path d="M162.647 1130.43C212.895 1121.69 263.144 1112.96 318.487 1103.34C314.797 1130.11 294.313 1144.89 270.398 1151.01C199.409 1169.18 127.741 1186.83 54.7312 1198.77C12.9027 1205.62 -9.07102 1182.97 3.54713 1151.48C24.6087 1098.93 49.1658 1047.22 72.3337 995.171C73.6866 992.13 74.7631 988.027 77.7232 986.587C87.2027 981.974 97.5074 978.381 107.494 974.394C111.712 981.08 120.369 988.213 119.337 994.371C115.858 1015.14 108.969 1035.57 103.32 1056.11C100.359 1066.88 97.2609 1077.63 102.733 1093.55C118.725 1082.3 135.385 1071.56 150.615 1059.71C460.183 818.952 526.622 458.133 315.532 158.593C288.547 120.3 255.46 84.602 225.49 47.5598C215.049 34.6544 205.484 21.3213 195.52 8.18342C198.61 5.45595 201.701 2.72848 204.792 0C216.658 3.39063 231.861 4.27621 239.786 10.6268C267.308 32.6811 294.719 55.2742 317.89 80.07C552.548 331.166 561.684 679.899 338.015 949.678C295.361 1001.13 240.483 1046.5 190.829 1094.42C180.612 1104.27 168.534 1112.98 157.316 1122.21C159.093 1124.95 160.869 1127.69 162.647 1130.43Z" fill="#FEF695"/>
</svg>
